<?xml version="1.0" standalone="no"?>
<!DOCTYPE svg PUBLIC "-//W3C//DTD SVG 20010904//EN"
 "http://www.w3.org/TR/2001/REC-SVG-20010904/DTD/svg10.dtd">
<svg version="1.0" xmlns="http://www.w3.org/2000/svg"
 width="1519.000000pt" height="1920.000000pt" viewBox="0 0 1519.000000 1920.000000"
 preserveAspectRatio="xMidYMid meet">

<g transform="translate(0.000000,1920.000000) scale(0.100000,-0.100000)"
fill="#000000" stroke="none">
<path d="M9705 19185 c-724 -65 -1428 -277 -2011 -604 l-139 -78 -80 44 c-369
205 -807 377 -1215 477 -384 94 -699 135 -1105 143 -828 16 -1560 -143 -2300
-501 -1128 -546 -2018 -1498 -2487 -2661 -532 -1317 -483 -2807 132 -4091 43
-89 100 -202 129 -253 28 -50 51 -94 51 -99 0 -4 -34 -70 -76 -146 -489 -896
-689 -1942 -568 -2976 247 -2110 1805 -3848 3879 -4329 860 -199 1772 -170
2612 85 363 110 755 277 1037 442 l69 41 101 -55 c1589 -869 3540 -811 5073
152 788 494 1431 1200 1841 2019 307 615 476 1234 527 1930 57 772 -73 1567
-375 2299 -54 130 -200 430 -262 539 l-33 57 43 78 c77 137 239 474 285 593
194 494 298 950 342 1492 58 722 -59 1502 -330 2197 -332 851 -890 1596 -1620
2165 -139 108 -443 311 -600 401 -543 308 -1171 520 -1806 609 -322 45 -803
58 -1114 30z m-4205 -85 c437 -33 855 -117 1255 -253 149 -51 348 -127 343
-132 -2 -2 -71 20 -155 50 -254 91 -540 164 -818 209 -291 48 -456 61 -790 60
-319 -1 -469 -12 -745 -54 -1241 -191 -2387 -886 -3147 -1906 -190 -256 -314
-457 -462 -754 -270 -543 -430 -1089 -497 -1700 -22 -202 -30 -642 -15 -837
83 -1098 475 -2067 1171 -2888 126 -149 438 -458 585 -581 769 -639 1658
-1012 2660 -1116 132 -13 635 -17 840 -6 156 8 152 4 -15 -16 -232 -29 -363
-36 -645 -36 -298 -1 -452 9 -685 41 -752 103 -1398 347 -2025 765 -1201 799
-1998 2071 -2189 3494 -53 397 -57 843 -11 1250 125 1091 617 2119 1394 2914
722 737 1642 1230 2651 1421 160 30 329 53 505 70 173 15 614 18 795 5z m5020
-35 c528 -44 988 -150 1455 -338 1240 -496 2228 -1463 2754 -2694 473 -1107
528 -2377 154 -3528 -50 -155 -143 -399 -168 -442 -19 -32 -16 -23 37 112 144
370 251 851 289 1300 15 184 15 583 0 765 -116 1399 -806 2652 -1933 3508
-580 440 -1290 758 -2015 902 -517 102 -1069 121 -1598 54 -859 -108 -1699
-454 -2385 -983 -799 -616 -1393 -1462 -1688 -2406 -105 -334 -156 -581 -204
-990 -18 -150 -18 -770 0 -928 15 -134 10 -168 -7 -50 -134 916 -29 1809 312
2658 308 768 814 1444 1482 1979 718 576 1555 933 2475 1057 291 39 738 49
1040 24z m-4560 -109 c278 -34 556 -88 782 -152 180 -50 474 -152 465 -160 -2
-3 -29 4 -58 15 -99 36 -282 90 -427 125 -529 130 -1138 160 -1705 85 -1245
-165 -2388 -846 -3153 -1879 -578 -781 -908 -1723 -942 -2688 -43 -1221 341
-2358 1113 -3294 134 -163 440 -471 595 -600 771 -640 1656 -1006 2635 -1089
179 -15 582 -15 750 0 244 22 456 55 658 103 71 16 130 28 133 25 7 -7 -174
-65 -290 -92 -767 -181 -1646 -157 -2426 68 -566 164 -1100 432 -1575 790
-342 259 -713 632 -966 972 -763 1026 -1090 2280 -929 3565 74 590 294 1241
598 1775 323 567 778 1086 1292 1475 699 528 1499 850 2363 950 236 27 249 28
622 25 230 -2 371 -8 465 -19z m85 -106 c280 -20 538 -60 792 -121 185 -45
450 -126 441 -135 -2 -1 -48 11 -103 27 -345 103 -716 158 -1126 166 -763 16
-1436 -135 -2105 -470 -533 -267 -1030 -655 -1420 -1107 -541 -627 -920 -1414
-1068 -2220 -112 -611 -109 -1210 10 -1815 274 -1392 1175 -2600 2425 -3249
954 -495 2076 -631 3113 -376 66 16 122 28 124 25 14 -14 -371 -112 -591 -149
-302 -52 -409 -60 -787 -61 -362 0 -462 6 -720 46 -1011 155 -1921 627 -2643
1369 -226 232 -372 413 -552 684 -419 631 -663 1296 -767 2085 -19 146 -22
213 -22 556 0 422 9 546 69 870 286 1560 1346 2894 2790 3510 514 219 970 325
1585 368 110 8 427 6 555 -3z m231 -110 c326 -19 615 -62 880 -130 64 -17 126
-28 138 -25 15 5 17 4 7 -3 -10 -8 -6 -12 18 -17 18 -4 31 -9 28 -11 -2 -2
-51 7 -108 20 -482 114 -1056 138 -1574 65 -1145 -160 -2195 -789 -2909 -1744
-441 -589 -734 -1274 -856 -1995 -51 -302 -64 -464 -64 -795 0 -320 12 -470
59 -762 300 -1854 1718 -3357 3513 -3722 572 -117 1186 -115 1746 3 66 14 122
24 124 21 6 -6 -85 -31 -233 -64 -1204 -270 -2474 -35 -3488 646 -253 171
-427 314 -665 548 -381 374 -652 743 -886 1205 -346 683 -510 1373 -509 2140
1 925 262 1794 768 2565 291 443 688 864 1111 1177 364 270 783 491 1212 639
347 120 730 200 1107 229 136 10 167 12 326 18 41 1 156 -2 255 -8z m864 -40
c8 -5 11 -10 5 -10 -5 0 -17 5 -25 10 -8 5 -10 10 -5 10 6 0 17 -5 25 -10z
m-250 -84 c69 -9 190 -28 270 -43 80 -15 159 -27 177 -28 17 0 29 -3 26 -7 -2
-5 6 -8 18 -8 12 0 20 -3 16 -6 -3 -3 -48 1 -99 10 -671 114 -1451 44 -2094
-190 -1068 -387 -1940 -1179 -2454 -2229 -396 -810 -542 -1740 -415 -2650 25
-180 45 -280 91 -470 271 -1098 950 -2063 1884 -2677 484 -318 1026 -531 1593
-627 285 -49 385 -56 742 -55 281 0 353 3 485 22 249 35 238 34 210 22 -44
-17 -290 -58 -481 -81 -259 -30 -676 -30 -934 0 -648 75 -1203 259 -1742 574
-782 459 -1430 1178 -1811 2011 -244 534 -367 1027 -412 1651 -38 525 40 1149
211 1680 309 965 941 1814 1769 2374 623 422 1277 657 2045 736 185 19 726 13
905 -9z m3485 -1 c163 -5 426 -34 600 -64 1148 -203 2180 -807 2925 -1711 326
-395 600 -865 782 -1345 382 -1004 420 -2091 112 -3130 -40 -132 -124 -368
-130 -362 -2 2 12 50 31 108 393 1163 283 2504 -294 3604 -369 704 -922 1316
-1591 1762 -855 570 -1873 852 -2897 803 -120 -6 -276 -17 -348 -26 -1202
-143 -2283 -710 -3078 -1614 -491 -559 -854 -1252 -1026 -1964 -97 -399 -133
-701 -133 -1116 0 -413 38 -734 133 -1114 22 -87 38 -160 36 -163 -6 -6 -75
207 -101 312 -96 393 -138 744 -139 1160 0 265 9 427 39 653 105 810 423 1590
914 2247 753 1007 1833 1675 3065 1895 277 49 670 81 890 73 33 -1 128 -5 210
-8z m-3191 -81 c210 -22 258 -34 101 -26 -1128 60 -2146 -278 -2981 -988 -150
-128 -390 -370 -511 -516 -573 -691 -921 -1510 -1017 -2394 -45 -417 -38 -780
25 -1200 228 -1523 1258 -2850 2644 -3408 368 -148 741 -239 1160 -283 129
-14 556 -18 720 -7 130 8 72 -5 -110 -27 -194 -23 -554 -30 -750 -16 -680 50
-1305 241 -1867 572 -744 438 -1349 1096 -1733 1884 -393 809 -535 1715 -411
2620 106 771 424 1523 905 2140 639 820 1523 1376 2510 1580 221 46 415 71
701 89 106 7 467 -5 614 -20z m301 -53 c-1 -8 -8 -17 -16 -20 -8 -2 -18 -10
-24 -18 -5 -7 -51 -24 -100 -37 -387 -104 -822 -295 -1180 -519 -818 -512
-1462 -1328 -1789 -2267 -527 -1512 -228 -3193 785 -4410 494 -595 1138 -1040
1882 -1304 237 -84 414 -131 444 -117 30 14 30 14 30 -5 0 -27 -46 -36 -157
-30 -1434 87 -2674 841 -3408 2071 -319 536 -526 1145 -596 1760 -49 422 -39
839 29 1261 71 439 239 942 447 1334 487 916 1254 1617 2167 1980 407 161 804
255 1256 295 l140 12 -105 2 c-389 5 -1004 -125 -1442 -305 -1254 -513 -2216
-1670 -2528 -3039 -92 -404 -132 -847 -111 -1213 28 -486 94 -835 236 -1257
359 -1068 1132 -1973 2105 -2464 546 -276 1100 -418 1740 -446 80 -4 146 -8
148 -10 9 -8 -318 -16 -445 -11 -892 41 -1681 318 -2369 833 -177 133 -308
249 -499 444 -459 469 -796 1016 -1011 1640 -119 348 -178 613 -226 1024 -20
172 -17 753 5 935 52 428 142 787 293 1170 359 911 1031 1693 1874 2177 321
185 691 332 1060 422 393 95 692 128 1161 127 174 -1 206 -3 204 -15z m-109
-90 c-3 -5 -88 -50 -188 -99 -793 -392 -1389 -913 -1851 -1617 -496 -756 -757
-1640 -758 -2561 0 -757 162 -1447 495 -2114 441 -880 1133 -1576 2011 -2024
136 -70 375 -176 392 -176 4 1 -59 35 -142 76 -1162 583 -1991 1530 -2395
2734 -164 491 -240 963 -240 1500 0 755 161 1440 496 2109 249 499 518 868
915 1256 302 295 640 548 994 745 75 41 70 37 -90 -87 -734 -566 -1324 -1371
-1665 -2273 -302 -800 -391 -1712 -249 -2567 234 -1415 1059 -2653 2267 -3405
113 -70 130 -84 113 -91 -38 -18 -428 125 -712 260 -770 368 -1389 920 -1841
1643 -363 581 -585 1225 -665 1932 -27 237 -24 751 6 998 86 714 325 1377 708
1965 534 818 1306 1421 2253 1756 144 51 154 54 146 40z m3079 -237 c375 -20
838 -113 1225 -246 993 -342 1845 -1001 2427 -1878 327 -493 567 -1077 682
-1660 113 -572 115 -1214 5 -1785 -32 -166 -103 -441 -148 -570 -44 -128 -45
-115 -2 33 62 213 113 482 143 745 23 209 23 689 -1 912 -144 1351 -858 2534
-1997 3308 -1400 951 -3222 1080 -4744 337 -1409 -688 -2375 -2018 -2564
-3530 -70 -557 -37 -1124 94 -1640 50 -195 48 -188 36 -169 -17 27 -89 281
-125 447 -123 556 -141 1149 -55 1722 131 865 523 1700 1109 2365 411 466 900
842 1450 1116 782 389 1552 543 2465 493z m135 -469 c610 -62 1147 -221 1694
-503 1254 -647 2154 -1846 2400 -3197 92 -507 102 -1045 26 -1524 -34 -217
-124 -610 -137 -597 -3 3 6 53 21 113 33 142 61 304 82 488 27 227 25 719 -4
955 -123 1013 -570 1919 -1298 2630 -374 365 -754 631 -1229 861 -605 292
-1223 440 -1910 456 -774 18 -1484 -138 -2170 -477 -533 -263 -995 -611 -1374
-1035 -646 -722 -1022 -1565 -1117 -2505 -26 -247 -23 -661 5 -896 23 -193 47
-335 81 -484 32 -135 18 -120 -20 21 -301 1138 -140 2378 440 3384 356 618
853 1151 1440 1542 666 444 1432 713 2205 773 77 6 160 12 185 14 97 8 533 -4
680 -19z m65 -464 c409 -50 757 -136 1134 -281 1352 -518 2396 -1681 2735
-3046 161 -648 179 -1262 55 -1912 -34 -176 -49 -213 -25 -61 44 274 62 619
47 864 -28 432 -91 764 -211 1125 -213 641 -551 1183 -1044 1676 -497 496
-1065 851 -1728 1079 -482 166 -968 245 -1496 245 -245 0 -380 -9 -622 -41
-1458 -192 -2750 -1100 -3398 -2389 -249 -493 -386 -972 -437 -1525 -29 -313
-15 -739 34 -1030 10 -60 17 -112 15 -114 -5 -6 -22 70 -49 212 -165 902 -40
1847 354 2672 211 441 479 819 841 1189 380 388 768 666 1265 907 548 266
1031 394 1715 453 25 2 180 2 345 1 224 -3 343 -9 470 -24z m-189 -441 c480
-38 890 -133 1334 -307 186 -73 482 -218 640 -313 1141 -686 1897 -1797 2085
-3065 48 -325 59 -743 28 -1046 -10 -90 -17 -185 -18 -211 0 -25 -2 -43 -5
-40 -15 20 -30 9 -30 -22 0 -79 -23 -124 -36 -72 -3 14 -11 27 -18 29 -7 3
-32 50 -56 104 -441 1013 -1188 1806 -2160 2293 -657 329 -1355 492 -2105 492
-568 0 -1075 -87 -1596 -275 -1222 -442 -2170 -1341 -2679 -2542 -23 -55 -47
-106 -53 -113 -7 -9 -7 -16 0 -23 7 -7 38 30 98 118 339 494 743 916 1215
1265 181 135 500 338 530 338 16 0 194 -121 345 -235 533 -401 986 -905 1332
-1480 102 -170 107 -185 99 -328 -33 -589 -192 -1186 -452 -1699 -502 -988
-1403 -1753 -2489 -2113 -646 -214 -1297 -279 -1973 -195 -1366 169 -2579 969
-3253 2145 -309 539 -528 1300 -533 1851 0 73 -4 127 -8 120 -21 -32 0 -423
37 -666 37 -250 108 -534 194 -778 444 -1259 1523 -2260 2856 -2647 351 -102
661 -153 1066 -176 234 -14 488 -3 769 32 1694 209 3125 1377 3607 2944 111
361 165 671 185 1068 10 196 13 223 24 198 36 -86 69 -521 60 -811 -18 -641
-161 -1225 -437 -1780 -220 -443 -461 -774 -823 -1135 -213 -212 -357 -336
-563 -483 -1086 -776 -2506 -1029 -3803 -677 -1235 336 -2259 1165 -2820 2285
-211 420 -342 857 -412 1373 -20 142 -23 206 -23 522 0 292 3 386 18 498 10
77 16 145 13 153 -3 9 -1 12 4 9 6 -4 11 10 11 32 l2 38 8 -35 c7 -30 7 -26 5
20 -2 30 -1 49 1 42 4 -10 8 -9 18 4 11 16 13 16 20 -6 4 -13 15 -31 25 -39 9
-9 34 -56 55 -106 49 -118 162 -343 238 -475 489 -852 1232 -1517 2132 -1910
949 -414 2013 -503 3025 -255 343 84 640 194 970 360 807 403 1450 1010 1911
1802 67 113 205 391 255 512 21 51 40 87 42 79 3 -18 -85 -278 -148 -435 -144
-356 -347 -719 -571 -1018 -333 -446 -769 -837 -1262 -1132 -557 -334 -1189
-544 -1857 -619 -197 -22 -724 -25 -910 -6 -1118 119 -2093 592 -2846 1382
-440 462 -787 1050 -1000 1695 -23 72 -43 125 -43 120 -2 -22 70 -267 117
-400 221 -629 565 -1179 1020 -1631 622 -618 1402 -1035 2272 -1213 323 -66
536 -86 910 -86 310 0 430 8 690 47 1322 195 2507 986 3160 2108 187 322 325
644 430 1003 32 109 49 181 45 197 -5 20 -25 -12 -114 -185 -309 -604 -688
-1085 -1187 -1506 -520 -439 -1166 -769 -1844 -943 -406 -104 -745 -146 -1175
-146 -544 0 -995 73 -1497 241 -1004 335 -1843 977 -2425 1854 -116 176 -333
556 -296 520 6 -5 45 -58 86 -117 294 -415 704 -839 1113 -1150 674 -511 1454
-838 2299 -962 442 -65 987 -65 1435 0 1460 212 2760 1064 3515 2304 32 52 64
106 72 119 12 19 17 21 24 10 5 -8 9 -9 9 -4 0 41 -22 25 -80 -62 -391 -580
-876 -1066 -1440 -1443 -144 -95 -316 -200 -330 -200 -15 0 -225 145 -371 257
-359 272 -709 622 -983 982 -143 188 -396 577 -396 608 0 5 -8 26 -18 46 -16
34 -17 49 -5 199 26 346 68 587 154 890 202 709 541 1289 1059 1809 430 431
915 753 1475 976 893 357 1870 417 2804 172 601 -158 1135 -427 1645 -830 171
-136 512 -476 651 -649 543 -681 839 -1453 914 -2385 l8 -100 2 97 c6 430
-127 1061 -319 1519 -589 1402 -1943 2400 -3505 2584 -400 47 -711 45 -1120
-6 -862 -107 -1707 -485 -2355 -1054 -491 -431 -880 -970 -1116 -1547 -178
-432 -279 -894 -306 -1390 -6 -126 -14 -228 -17 -228 -3 0 -8 93 -9 208 -7
401 34 763 129 1147 318 1284 1244 2348 2514 2890 147 63 487 176 660 219 544
136 1151 166 1720 85 722 -103 1439 -395 2007 -817 199 -148 326 -259 513
-446 801 -802 1219 -1821 1226 -2991 2 -199 3 -211 11 -130 15 147 3 635 -21
810 -122 904 -474 1655 -1090 2323 -704 765 -1689 1259 -2761 1386 -306 37
-548 41 -890 15 -1219 -92 -2368 -694 -3125 -1639 -503 -629 -793 -1329 -891
-2150 -18 -154 -25 -553 -13 -770 l7 -115 -13 75 c-41 236 -55 768 -27 1025
111 1023 525 1897 1237 2610 363 364 748 637 1220 866 507 246 995 380 1570
434 173 16 568 18 741 5z m99 -2296 c843 -75 1684 -394 2361 -897 562 -417
1023 -953 1363 -1586 33 -63 60 -116 58 -117 -2 -2 -32 38 -68 88 -295 422
-722 868 -1128 1176 -619 472 -1356 798 -2116 936 -1078 196 -2165 44 -3132
-439 -517 -258 -928 -557 -1333 -971 -284 -290 -504 -574 -709 -917 -29 -49
-55 -87 -57 -84 -7 7 192 392 271 522 223 371 441 651 730 940 525 527 1146
906 1861 1138 619 201 1236 270 1899 211z m-10 -454 c499 -47 962 -153 1370
-315 1507 -598 2647 -1925 3014 -3510 158 -685 169 -1420 30 -2120 -115 -581
-345 -1156 -668 -1670 -416 -661 -982 -1217 -1663 -1632 -134 -81 -450 -242
-613 -311 -487 -207 -988 -333 -1530 -384 -181 -17 -730 -17 -895 0 -486 49
-932 152 -1350 313 -111 42 -237 98 -165 73 11 -3 95 -33 187 -65 1220 -426
2571 -337 3737 245 759 379 1418 961 1885 1664 137 206 211 334 321 557 295
598 457 1198 506 1884 14 202 7 618 -15 821 -99 906 -429 1753 -958 2457 -151
200 -270 337 -472 539 -392 391 -757 658 -1231 899 -589 299 -1167 461 -1840
516 -137 11 -716 6 -830 -7 -27 -4 -48 -4 -45 -1 9 9 350 48 495 57 166 10
574 5 730 -10z m-495 -91 c343 -25 657 -76 935 -151 863 -233 1597 -663 2222
-1301 1050 -1072 1541 -2538 1353 -4042 -132 -1057 -632 -2072 -1395 -2829
-539 -535 -1155 -919 -1862 -1159 -929 -317 -1949 -342 -2888 -72 -152 44
-449 145 -443 151 2 1 66 -17 143 -42 1016 -326 2122 -294 3105 91 327 128
573 255 870 450 616 404 1118 931 1502 1573 89 150 263 503 322 653 166 425
263 810 317 1254 27 217 37 696 20 912 -63 782 -291 1504 -679 2145 -663 1096
-1721 1880 -2932 2173 -376 91 -698 128 -1110 128 -395 0 -743 -40 -1072 -124
-97 -24 -119 -23 -48 2 231 85 586 152 967 183 180 15 503 17 673 5z m-397
-119 c367 -19 646 -62 982 -150 766 -200 1481 -606 2059 -1170 800 -781 1280
-1755 1418 -2880 19 -150 22 -228 22 -545 0 -424 -14 -581 -84 -938 -250
-1257 -997 -2364 -2069 -3061 -1089 -709 -2423 -931 -3686 -611 -166 42 -400
113 -393 120 1 2 68 -15 148 -36 1143 -311 2355 -161 3380 419 1000 565 1770
1505 2134 2607 138 415 210 809 237 1294 32 581 -73 1264 -284 1841 -361 990
-1065 1852 -1951 2389 -275 167 -534 292 -821 396 -821 297 -1784 344 -2615
126 -41 -11 -76 -18 -78 -16 -8 8 118 47 270 84 291 71 604 117 883 131 228
11 246 11 448 0z m-212 -120 c593 -45 1123 -186 1634 -434 471 -228 874 -515
1238 -880 436 -438 764 -924 1002 -1485 488 -1150 493 -2470 13 -3626 -321
-773 -855 -1457 -1528 -1957 -611 -454 -1345 -750 -2085 -842 -419 -52 -868
-49 -1258 9 -218 33 -624 127 -646 151 -3 3 3 4 14 0 68 -20 256 -60 383 -80
458 -75 968 -73 1426 5 1156 197 2193 864 2883 1855 456 655 719 1371 810
2204 24 220 23 677 -1 905 -93 884 -402 1678 -917 2356 -736 968 -1793 1587
-2964 1733 -386 49 -739 47 -1118 -5 -126 -17 -343 -56 -412 -75 -16 -4 -17
-3 -4 5 44 28 413 106 639 136 264 34 634 44 891 25z m-396 -100 c922 -58
1753 -377 2465 -945 1304 -1040 1934 -2710 1650 -4371 -132 -769 -463 -1495
-966 -2118 -124 -153 -461 -492 -621 -624 -336 -277 -712 -504 -1114 -672
-686 -287 -1478 -392 -2229 -295 -135 18 -443 75 -436 82 2 3 62 -5 133 -16
426 -67 870 -64 1323 10 1564 257 2883 1404 3400 2957 391 1173 300 2443 -250
3532 -356 702 -863 1276 -1505 1705 -201 133 -301 190 -518 295 -630 303
-1288 436 -2012 408 -151 -6 -421 -33 -524 -53 -26 -5 -26 -5 -2 5 33 14 260
55 416 75 267 33 526 41 790 25z m-135 -104 c581 -71 1125 -245 1595 -510
1192 -674 2017 -1881 2215 -3243 63 -438 65 -854 5 -1303 -133 -1001 -639
-1976 -1380 -2663 -721 -669 -1594 -1056 -2565 -1137 -310 -26 -840 -5 -1022
41 -69 18 -39 27 90 28 377 5 822 82 1222 214 1344 441 2393 1591 2764 3031
106 409 159 921 136 1317 -27 480 -93 834 -235 1254 -280 833 -811 1570 -1510
2097 -551 415 -1226 688 -1935 782 -145 20 -381 36 -485 34 -69 -1 -59 -3 70
-13 768 -64 1455 -295 2045 -688 613 -409 1127 -993 1461 -1658 477 -953 600
-2075 338 -3097 -195 -762 -573 -1444 -1107 -1994 -469 -483 -1012 -828 -1632
-1040 -378 -128 -768 -206 -1140 -226 -92 -5 -135 -11 -135 -19 0 -6 -4 -15
-9 -20 -5 -4 -6 -3 -3 4 4 6 2 13 -4 15 -25 8 45 27 165 43 583 78 1192 303
1686 623 963 624 1651 1644 1885 2796 67 330 102 713 92 1016 -25 777 -219
1474 -595 2135 -76 134 -266 413 -366 539 -320 401 -714 749 -1131 998 -349
209 -793 388 -1185 478 -209 47 -217 49 -355 70 -196 30 -191 23 15 -19 671
-138 1263 -400 1769 -784 627 -476 1122 -1132 1414 -1872 472 -1196 410 -2537
-170 -3678 -369 -726 -917 -1321 -1597 -1736 -427 -260 -951 -459 -1449 -552
-127 -23 -165 -20 -71 6 818 225 1508 636 2062 1229 617 659 1030 1528 1156
2431 35 254 40 338 41 645 0 369 -18 562 -81 885 -248 1268 -1019 2361 -2104
2984 -318 183 -684 335 -1047 436 -144 39 -132 29 27 -24 558 -186 1069 -467
1500 -826 282 -235 608 -598 820 -914 146 -218 348 -598 439 -829 154 -387
252 -773 302 -1193 30 -245 33 -749 5 -989 -63 -559 -206 -1052 -445 -1536
-181 -367 -392 -685 -647 -974 -101 -115 -339 -351 -449 -446 -390 -337 -906
-630 -1443 -820 -68 -24 -126 -44 -128 -44 -24 0 36 35 199 117 106 52 239
123 297 156 393 225 772 526 1065 844 939 1017 1372 2382 1199 3783 -21 170
-84 483 -134 664 -210 761 -623 1470 -1180 2025 -395 394 -884 728 -1385 946
-221 97 -236 99 -48 6 191 -94 363 -194 563 -327 387 -257 693 -525 973 -853
624 -731 1001 -1613 1109 -2601 17 -157 17 -768 0 -925 -52 -473 -146 -860
-313 -1285 -361 -921 -1007 -1699 -1856 -2236 -142 -90 -287 -170 -238 -132
416 324 647 545 932 893 400 488 726 1089 922 1698 211 656 284 1387 206 2074
-70 612 -236 1170 -510 1708 -413 811 -1040 1495 -1805 1967 -130 80 -158 108
-115 116 11 2 28 11 37 19 14 12 58 17 215 21 517 13 1048 -74 1543 -251 915
-329 1688 -978 2212 -1855 83 -140 242 -460 293 -592 215 -551 310 -1019 322
-1585 17 -764 -136 -1446 -474 -2120 -545 -1086 -1498 -1883 -2637 -2206 -402
-114 -790 -164 -1218 -157 -277 4 -270 -8 13 -21 676 -32 1373 110 1984 403
738 354 1389 954 1814 1671 347 585 533 1139 618 1845 25 209 25 764 -1 975
-68 566 -202 1030 -435 1501 -353 716 -863 1302 -1506 1729 -589 392 -1266
621 -1995 676 -145 11 -589 7 -680 -6 -25 -4 -29 -3 -15 3 11 5 90 17 175 26
85 9 169 18 185 20 80 11 649 -3 775 -18z m-3683 -258 c-3 -8 -6 -5 -6 6 -1
11 2 17 5 13 3 -3 4 -12 1 -19z m9285 -1482 c2 -19 0 -32 -4 -30 -8 5 -12 64
-4 64 2 0 6 -15 8 -34z m-13886 -492 c-109 -632 -45 -1390 169 -2013 375
-1094 1175 -1992 2238 -2515 1066 -524 2312 -610 3452 -239 208 68 348 125
563 229 465 225 870 511 1222 864 819 819 1260 1876 1260 3015 0 235 -10 383
-41 593 -12 79 -19 145 -17 148 3 2 17 -60 32 -138 172 -883 68 -1806 -295
-2613 -160 -357 -381 -713 -622 -1004 -1002 -1207 -2531 -1814 -4097 -1626
-699 85 -1400 345 -1990 738 -565 378 -1061 905 -1395 1482 -479 829 -669
1780 -549 2745 21 168 72 436 81 427 2 -3 -3 -45 -11 -93z m-41 -60 c-76 -332
-99 -558 -99 -949 0 -342 10 -467 60 -755 188 -1081 804 -2074 1710 -2757 316
-238 703 -457 1064 -601 713 -285 1519 -389 2300 -296 1192 141 2299 755 3045
1689 538 673 852 1441 941 2300 23 216 23 635 0 845 -19 175 -56 404 -86 528
-11 46 -20 89 -19 95 1 24 19 -36 54 -176 243 -988 153 -2014 -259 -2935 -444
-993 -1275 -1828 -2276 -2287 -995 -456 -2105 -554 -3160 -278 -672 175 -1317
513 -1855 971 -139 119 -412 395 -526 532 -420 505 -710 1044 -882 1641 -115
398 -164 725 -174 1161 -8 382 14 652 83 997 25 127 94 394 100 388 2 -2 -7
-53 -21 -113z m-43 -50 c-64 -216 -120 -497 -149 -757 -24 -212 -24 -711 0
-927 133 -1190 685 -2224 1607 -3006 667 -567 1497 -936 2385 -1063 425 -60
877 -62 1305 -5 1061 142 2025 630 2772 1403 604 624 1012 1395 1183 2235 134
660 114 1405 -55 2025 -35 131 -33 160 3 44 85 -267 146 -561 184 -878 22
-190 25 -772 5 -965 -118 -1113 -595 -2103 -1389 -2880 -355 -349 -705 -602
-1148 -831 -576 -298 -1169 -467 -1820 -519 -170 -13 -579 -13 -753 0 -1338
105 -2575 775 -3399 1841 -870 1126 -1175 2584 -832 3974 41 166 118 419 126
412 2 -3 -9 -49 -25 -103z m-57 -79 c-106 -313 -180 -670 -217 -1040 -16 -168
-16 -662 0 -830 79 -801 329 -1509 765 -2165 659 -991 1684 -1713 2839 -1999
1424 -352 2927 -51 4083 818 271 203 603 517 801 756 630 762 990 1625 1080
2585 16 181 19 629 4 805 -23 258 -65 507 -131 769 -16 65 -28 120 -26 122 6
7 75 -205 101 -311 176 -719 187 -1499 31 -2206 -90 -405 -198 -714 -385
-1094 -251 -511 -519 -885 -930 -1296 -391 -391 -782 -675 -1265 -917 -1138
-569 -2457 -670 -3675 -280 -1032 330 -1910 986 -2542 1898 -322 465 -595
1090 -719 1650 -190 850 -151 1735 111 2555 44 137 111 317 116 313 1 -2 -17
-62 -41 -133z m-34 -2 c-12 -20 -14 -14 -5 12 4 9 9 14 11 11 3 -2 0 -13 -6
-23z m-57 -158 c-417 -1193 -349 -2508 189 -3650 338 -718 836 -1332 1477
-1822 680 -520 1526 -864 2380 -967 404 -49 834 -49 1225 0 624 78 1239 277
1780 576 1077 594 1906 1587 2288 2738 158 475 233 916 244 1430 5 249 2 340
-22 640 -9 114 13 -12 35 -194 114 -972 -58 -1971 -488 -2831 -101 -203 -151
-292 -250 -445 -996 -1540 -2747 -2412 -4567 -2275 -1083 82 -2078 494 -2894
1199 -871 753 -1453 1770 -1660 2901 -56 307 -76 540 -76 905 0 355 16 558 71
875 53 310 163 701 279 988 44 109 38 72 -11 -68z m9553 -987 c-3 -8 -6 -5 -6
6 -1 11 2 17 5 13 3 -3 4 -12 1 -19z m-1907 -5438 c8 -5 11 -10 5 -10 -5 0
-17 5 -25 10 -8 5 -10 10 -5 10 6 0 17 -5 25 -10z"/>
<path d="M7350 18443 c-289 -47 -435 -79 -630 -136 -550 -163 -1044 -426
-1487 -792 -130 -107 -410 -385 -515 -510 -451 -540 -759 -1145 -923 -1810
-180 -732 -178 -1464 5 -2198 165 -660 504 -1310 950 -1822 116 -132 379 -389
511 -497 569 -466 1266 -775 2011 -893 119 -18 167 -18 78 1 -440 93 -674 165
-1007 310 -667 290 -1263 773 -1705 1379 -336 461 -571 962 -717 1525 -114
441 -161 939 -131 1380 63 902 350 1687 879 2404 162 219 386 460 610 657 568
501 1263 834 2046 984 97 19 118 33 25 18z"/>
<path d="M7433 9763 c9 -2 23 -2 30 0 6 3 -1 5 -18 5 -16 0 -22 -2 -12 -5z"/>
<path d="M9800 15529 c-788 -60 -1513 -308 -2163 -741 -471 -313 -874 -714
-1184 -1178 -332 -498 -563 -1105 -653 -1717 -26 -178 -24 -197 6 -43 175 913
563 1660 1184 2280 526 526 1162 901 1890 1113 673 197 1452 231 2124 92 756
-157 1415 -474 2001 -964 117 -97 410 -391 506 -506 465 -558 769 -1195 918
-1929 42 -203 51 -221 26 -53 -65 436 -191 848 -380 1244 -524 1097 -1574
1946 -2805 2267 -464 121 -1005 171 -1470 135z"/>
<path d="M9830 15074 c-353 -30 -590 -68 -880 -145 -1098 -289 -2063 -1001
-2635 -1947 -158 -261 -302 -570 -405 -867 -41 -119 -111 -360 -109 -380 0 -5
24 60 53 145 171 506 405 952 709 1350 166 217 414 477 637 666 606 515 1376
871 2166 1003 561 93 1160 81 1700 -35 395 -84 718 -196 1079 -374 1074 -529
1855 -1432 2251 -2600 29 -85 53 -150 53 -145 2 24 -73 275 -125 421 -219 618
-567 1171 -1011 1611 -727 719 -1641 1156 -2678 1278 -132 16 -688 29 -805 19z"/>
<path d="M14471 11714 c0 -11 3 -14 6 -6 3 7 2 16 -1 19 -3 4 -6 -2 -5 -13z"/>
<path d="M9387 11363 c-74 -456 -256 -977 -488 -1391 -561 -1002 -1514 -1738
-2654 -2051 -469 -129 -1003 -184 -1460 -151 -657 48 -1206 199 -1770 489
-816 418 -1474 1076 -1871 1871 -182 366 -299 706 -383 1112 -43 206 -51 221
-25 49 93 -637 345 -1280 699 -1786 597 -851 1492 -1465 2512 -1723 1434 -363
2940 -10 4048 949 131 113 387 377 497 510 431 526 732 1172 863 1849 30 154
57 346 53 366 -2 9 -11 -33 -21 -93z"/>
<path d="M9447 11245 c14 -471 -64 -1001 -215 -1460 -436 -1322 -1552 -2373
-2937 -2766 -456 -129 -829 -176 -1328 -166 -554 11 -995 96 -1512 291 -1223
461 -2204 1487 -2578 2696 -133 430 -186 763 -196 1240 -6 288 -6 292 -15 165
-13 -200 -2 -592 24 -785 97 -739 366 -1401 807 -1983 575 -759 1418 -1329
2338 -1582 753 -207 1505 -223 2265 -49 674 155 1320 478 1860 928 189 158
463 441 621 641 525 668 819 1439 880 2310 12 170 6 518 -11 635 -4 33 -6 -13
-3 -115z"/>
<path d="M7688 13403 c7 -3 16 -2 19 1 4 3 -2 6 -13 5 -11 0 -14 -3 -6 -6z"/>
<path d="M7280 2149 c0 -8 -18 -10 -57 -6 -51 5 -235 -7 -433 -29 -36 -4 -70
-13 -77 -19 -6 -7 -44 -15 -82 -19 -39 -4 -71 -10 -71 -14 0 -4 -23 -13 -52
-20 -28 -6 -59 -19 -68 -27 -9 -8 -23 -15 -31 -15 -8 0 -32 -17 -52 -38 -33
-34 -37 -43 -37 -90 0 -29 3 -52 8 -52 4 0 27 -19 51 -41 24 -22 57 -43 72
-46 16 -3 29 -9 29 -14 0 -5 18 -9 40 -9 29 0 40 -4 40 -15 0 -11 11 -15 40
-15 22 0 40 -4 40 -10 0 -5 17 -10 38 -10 21 0 42 -4 48 -9 5 -6 56 -15 114
-20 58 -6 130 -15 160 -20 69 -12 600 -14 600 -3 0 5 67 14 149 20 152 12 251
29 251 44 0 4 18 8 40 8 22 0 40 4 40 9 0 5 18 12 40 16 22 4 40 11 40 16 0 5
13 9 29 9 18 0 40 11 59 30 18 17 41 30 52 30 15 0 20 7 20 25 0 16 6 25 15
25 11 0 15 11 15 40 0 29 -4 40 -15 40 -9 0 -15 9 -15 25 0 20 -5 25 -24 25
-37 0 -56 10 -56 31 0 14 -10 20 -40 25 -22 4 -40 10 -40 15 0 5 -18 9 -39 9
-22 0 -41 5 -43 11 -6 19 -201 55 -368 69 -63 5 -160 14 -215 20 -133 14 -215
13 -215 -1z"/>
</g>
</svg>
